<?xml version="1.0" encoding="UTF-8"?>
<svg width="109px" height="82px" viewBox="0 0 109 82" version="1.1" xmlns="http://www.w3.org/2000/svg" xmlns:xlink="http://www.w3.org/1999/xlink">
    <title>Group</title>
    <g id="Aplikacja" stroke="none" stroke-width="1" fill="none" fill-rule="evenodd">
        <g id="9_Aktywacja_Powiadomienia" transform="translate(-163, -259)">
            <g id="Group" transform="translate(166, 261)">
                <path d="M62.7752173,4.04244334 C57.2560785,2.08627312 51.1515583,1 44.7311004,1 C20.0267958,1 0,17.0824533 0,36.9211648 C0,46.6505429 4.37741446,55.1254812 13.1322434,62.3459798 C12.3327266,66.0062507 9.86413387,70.4793062 5.72646527,75.7651462 C10.7113383,76.5031343 15.3509301,76.2539107 19.6452405,75.0174754 C23.9395509,73.7810401 27.2692267,72.3568967 29.6342678,70.7450453 C36.1669216,72.1432348 41.1991992,72.8423295 44.7311004,72.8423295 C65.1039717,72.8423295 82.2957686,61.9049945 87.698,46.9433452" id="Path" stroke="#F0C13D" stroke-width="6" stroke-linejoin="round"></path>
                <path d="M87,0 C97.4934102,0 106,8.50658975 106,19 C106,29.4934102 97.4934102,38 87,38 C76.5065898,38 68,29.4934102 68,19 C68,8.50658975 76.5065898,0 87,0 Z M90.2251282,8.12615385 L81.9820513,12.7153846 L81.9820513,16.9538462 L86.2205128,14.5861538 L86.2205128,29.2307692 L90.2251282,29.2307692 L90.2251282,8.12615385 Z" id="Combined-Shape" fill="#F0C13D"></path>
            </g>
        </g>
    </g>
</svg>